<svg width="24" height="24" viewBox="0 0 24 24" fill="none" xmlns="http://www.w3.org/2000/svg">
<path d="M2.39999 20.4V18.6H4.91999V9.42C4.91999 7.74 5.41499 6.245 6.40499 4.935C7.39499 3.625 8.69999 2.8 10.32 2.46V1.59C10.32 1.13 10.485 0.75 10.815 0.45C11.145 0.15 11.54 0 12 0C12.46 0 12.855 0.15 13.185 0.45C13.515 0.75 13.68 1.13 13.68 1.59V2.46C15.3 2.8 16.61 3.625 17.61 4.935C18.61 6.245 19.11 7.74 19.11 9.42V18.6H21.6V20.4H2.39999ZM12 24C11.36 24 10.8 23.765 10.32 23.295C9.83999 22.825 9.59999 22.26 9.59999 21.6H14.4C14.4 22.26 14.165 22.825 13.695 23.295C13.225 23.765 12.66 24 12 24ZM6.71999 18.6H17.31V9.42C17.31 7.94 16.8 6.68 15.78 5.64C14.76 4.6 13.51 4.08 12.03 4.08C10.55 4.08 9.29499 4.6 8.26499 5.64C7.23499 6.68 6.71999 7.94 6.71999 9.42V18.6Z" fill="#FDFDFD"/>
</svg>
